<?xml version="1.0" standalone="no"?>
<!DOCTYPE svg PUBLIC "-//W3C//DTD SVG 1.1//EN" "http://www.w3.org/Graphics/SVG/1.1/DTD/svg11.dtd" >
<svg xmlns="http://www.w3.org/2000/svg">
<metadata>
By Potch
</metadata>
<defs>
<font id="8BitArtSansNeue" horiz-adv-x='640' >
  <font-face
    font-family="8BitArtSansNeue"
    font-weight="500"
    font-stretch="normal"
    units-per-em="1024"
    panose-1="2 0 6 3 0 0 0 0 0 0"
    ascent="768"
    descent="-256"
    x-height="512"
    cap-height="640"
    bbox="0 -128 768 768"
    underline-thickness="128"
    underline-position="-256"
    unicode-range="U+0020-00B4"
  />
<missing-glyph horiz-adv-x="768"
d="M0 0 h512 v512 h-512 v-512" />
    <glyph glyph-name=".notdef" horiz-adv-x="768"
d="M0 0 h512 v512 h-512 v-512" />
    <glyph glyph-name=".null" horiz-adv-x="0"
 />
    <glyph glyph-name="nonmarkingreturn" horiz-adv-x="682"
 />
    <glyph glyph-name="space" unicode=" " horiz-adv-x="384"
 />
    <glyph glyph-name="exclam" unicode="!" horiz-adv-x="384"
d="M256 256h-256v256h128v128h128v-384zM0 128h256v-128h-256v128z" />
    <glyph glyph-name="quotedbl" unicode="&#x22;" horiz-adv-x="512"
d="M0 384v256h128v-256h-128zM256 384v256h128v-256h-128z" />
    <glyph glyph-name="numbersign" unicode="#" horiz-adv-x="768"
d="M384 256v128h-128v-128h128zM256 0v128h-128v-128h-128v256h128v128h-128v128h256v128h128v-128h128v128h128v-256h-128v-128h128v-128h-256v-128h-128z" />
    <glyph glyph-name="dollar" unicode="$"
d="M128 -128v128h-128v128h256v128h-256v128h128v128h128v128h128v-128h128v-128h-128v-128h128v-128h-128v-128h-128v-128h-128z" />
    <glyph glyph-name="percent" unicode="%" horiz-adv-x="768"
d="M256 384v128h-128v-128h128zM512 -128h-256v128h-128v128h128v128h-256v256h128v128h256v-128h128v128h128v-128h-128v-128h-128v-128h256v-256h-128v-128zM0 -128v128h128v-128h-128zM512 0v128h-128v-128h128z" />
    <glyph glyph-name="ampersand" unicode="&#x26;" horiz-adv-x="768"
d="M384 384v128h-128v-128h128zM384 0h-256v128h-128v128h128v128h-128v128h128v128h384v-256h128v-128h-128v-128h-128v-128zM384 128v128h-128v-128h128zM512 128h128v-128h-128v128z" />
    <glyph glyph-name="quotesingle" unicode="'" horiz-adv-x="256"
d="M0 384v256h128v-256h-128z" />
    <glyph glyph-name="parenleft" unicode="(" horiz-adv-x="512"
d="M384 -128h-256v128h-128v512h128v128h256v-128h-128v-512h128v-128z" />
    <glyph glyph-name="parenright" unicode=")" horiz-adv-x="512"
d="M256 -128h-256v128h128v512h-128v128h256v-128h128v-512h-128v-128z" />
    <glyph glyph-name="asterisk" unicode="*" horiz-adv-x="512"
d="M0 256v128h128v128h-128v128h128v-128h128v128h128v-128h-128v-128h-128v-128h-128zM256 384h128v-128h-128v128z" />
    <glyph glyph-name="plus" unicode="+" horiz-adv-x="512"
d="M128 128v128h-128v128h128v128h128v-128h128v-128h-128v-128h-128z" />
    <glyph glyph-name="comma" unicode="," horiz-adv-x="384"
d="M128 -128v128h-128v128h256v-256h-128z" />
    <glyph glyph-name="hyphen" unicode="-" horiz-adv-x="384"
d="M0 256h256v-128h-256v128z" />
    <glyph glyph-name="period" unicode="." horiz-adv-x="384"
d="M0 128h256v-128h-256v128z" />
    <glyph glyph-name="slash" unicode="/" horiz-adv-x="512"
d="M256 0h-256v256h128v384h256v-256h-128v-384z" />
    <glyph glyph-name="zero" unicode="0"
d="M384 128v384h-128v-384h128zM512 0h-512v512h128v128h384v-640z" />
    <glyph glyph-name="one" unicode="1" horiz-adv-x="512"
d="M384 0h-256v384h-128v128h128v128h256v-640z" />
    <glyph glyph-name="two" unicode="2"
d="M256 128h256v-128h-512v256h128v128h128v128h-256v128h384v-128h128v-256h-256v-128z" />
    <glyph glyph-name="three" unicode="3"
d="M512 0h-512v128h256v128h-128v128h128v128h-256v128h384v-128h128v-512z" />
    <glyph glyph-name="four" unicode="4"
d="M512 0h-256v256h-256v256h128v128h128v-256h128v256h128v-640z" />
    <glyph glyph-name="five" unicode="5"
d="M512 0h-512v128h256v128h-256v256h128v128h384v-128h-256v-128h256v-384z" />
    <glyph glyph-name="six" unicode="6"
d="M384 128v128h-128v-128h128zM512 0h-512v512h128v128h256v-128h-128v-128h256v-384z" />
    <glyph glyph-name="seven" unicode="7"
d="M384 0h-256v384h128v128h-256v128h512v-256h-128v-384z" />
    <glyph glyph-name="eight" unicode="8"
d="M512 0h-512v256h128v128h-128v128h128v128h384v-256h-128v-128h128v-256zM384 256h-128v-128h128v128zM384 384v128h-128v-128h128z" />
    <glyph glyph-name="nine" unicode="9"
d="M256 384v128h-128v-128h128zM384 0h-384v128h256v128h-256v256h128v128h384v-512h-128v-128z" />
    <glyph glyph-name="colon" unicode=":" horiz-adv-x="384"
d="M0 384h256v-128h-256v128zM0 128h256v-128h-256v128z" />
    <glyph glyph-name="semicolon" unicode=";" horiz-adv-x="384"
d="M0 384h256v-128h-256v128zM128 -128v128h-128v128h256v-256h-128z" />
    <glyph glyph-name="less" unicode="&#x3c;"
d="M512 0h-256v128h-128v128h-128v128h128v128h128v128h256v-128h-128v-128h-128v-128h128v-128h128v-128z" />
    <glyph glyph-name="equal" unicode="=" horiz-adv-x="512"
d="M0 512h384v-128h-384v128zM0 256h384v-128h-384v128z" />
    <glyph glyph-name="greater" unicode="&#x3e;"
d="M256 0h-256v128h128v128h128v128h-128v128h-128v128h256v-128h128v-128h128v-128h-128v-128h-128v-128z" />
    <glyph glyph-name="question" unicode="?"
d="M384 256h-256v128h128v128h-256v128h384v-128h128v-128h-128v-128zM128 128h256v-128h-256v128z" />
    <glyph glyph-name="at" unicode="@" horiz-adv-x="768"
d="M640 128h-384v256h256v128h-384v128h384v-128h128v-384zM128 0h512v-128h-512v128h-128v512h128v-512z" />
    <glyph glyph-name="A" unicode="A"
d="M384 384v128h-128v-128h128zM384 0v256h-128v-256h-256v384h128v256h384v-640h-128z" />
    <glyph glyph-name="B" unicode="B"
d="M512 0h-512v512h128v128h384v-256h-128v-128h128v-256zM384 256h-128v-128h128v128zM384 384v128h-128v-128h128z" />
    <glyph glyph-name="C" unicode="C"
d="M256 128h256v-128h-512v512h128v128h384v-128h-256v-384z" />
    <glyph glyph-name="D" unicode="D"
d="M384 0h-384v512h128v128h256v-128h-128v-384h128v-128zM384 128v384h128v-384h-128z" />
    <glyph glyph-name="E" unicode="E"
d="M256 128h256v-128h-512v512h128v128h384v-128h-256v-128h128v-128h-128v-128z" />
    <glyph glyph-name="F" unicode="F"
d="M256 0h-256v512h128v128h384v-128h-256v-128h128v-128h-128v-256z" />
    <glyph glyph-name="G" unicode="G"
d="M512 0h-512v512h128v128h384v-128h-256v-384h128v256h128v-384z" />
    <glyph glyph-name="H" unicode="H"
d="M384 0v256h-128v-256h-256v512h128v128h128v-256h128v256h128v-640h-128z" />
    <glyph glyph-name="I" unicode="I" horiz-adv-x="384"
d="M256 0h-256v512h128v128h128v-640z" />
    <glyph glyph-name="J" unicode="J"
d="M512 0h-512v256h128v-128h128v512h256v-640z" />
    <glyph glyph-name="K" unicode="K"
d="M256 0h-256v512h128v128h128v-256h128v256h128v-256h-128v-128h-128v-256zM384 0v256h128v-256h-128z" />
    <glyph glyph-name="L" unicode="L"
d="M256 128h256v-128h-512v512h128v128h128v-512z" />
    <glyph glyph-name="M" unicode="M" horiz-adv-x="896"
d="M640 0v512h-128v-512h-128v512h-128v128h512v-640h-128zM256 512v-512h-256v640h128v-128h128z" />
    <glyph glyph-name="N" unicode="N"
d="M384 0v512h-128v128h256v-640h-128zM256 512v-512h-256v640h128v-128h128z" />
    <glyph glyph-name="O" unicode="O"
d="M384 128v384h-128v-384h128zM512 0h-512v512h128v128h384v-640z" />
    <glyph glyph-name="P" unicode="P"
d="M384 256v256h-128v-256h128zM256 0h-256v512h128v128h384v-512h-256v-128z" />
    <glyph glyph-name="Q" unicode="Q"
d="M256 128v384h-128v-384h128zM512 -128h-256v128h-256v512h128v128h384v-768z" />
    <glyph glyph-name="R" unicode="R"
d="M256 0h-256v512h128v128h384v-256h-128v-128h-128v-256zM384 0v256h128v-256h-128zM384 384v128h-128v-128h128z" />
    <glyph glyph-name="S" unicode="S"
d="M512 0h-512v128h256v128h-256v256h128v128h384v-128h-256v-128h128v-128h128v-256z" />
    <glyph glyph-name="T" unicode="T"
d="M384 0h-256v512h-128v128h512v-128h-128v-512z" />
    <glyph glyph-name="U" unicode="U"
d="M512 0h-512v512h128v128h128v-512h128v512h128v-640z" />
    <glyph glyph-name="V" unicode="V"
d="M384 0h-384v640h128v-512h128v512h256v-512h-128v-128z" />
    <glyph glyph-name="W" unicode="W" horiz-adv-x="896"
d="M768 0h-768v512h128v128h128v-512h128v256h128v-256h128v512h128v-640z" />
    <glyph glyph-name="X" unicode="X"
d="M512 0h-256v256h-128v128h-128v256h256v-256h128v256h128v-256h-128v-128h128v-256zM0 0v256h128v-256h-128z" />
    <glyph glyph-name="Y" unicode="Y"
d="M384 0h-256v256h-128v256h128v128h128v-256h128v256h128v-384h-128v-256z" />
    <glyph glyph-name="Z" unicode="Z"
d="M256 128h256v-128h-512v256h128v128h128v128h-256v128h512v-256h-128v-128h-128v-128z" />
    <glyph glyph-name="bracketleft" unicode="[" horiz-adv-x="512"
d="M384 -128h-384v768h384v-128h-128v-512h128v-128z" />
    <glyph glyph-name="backslash" unicode="\" horiz-adv-x="512"
d="M384 0h-256v384h-128v256h256v-384h128v-256z" />
    <glyph glyph-name="bracketright" unicode="]" horiz-adv-x="512"
d="M384 -128h-384v128h128v512h-128v128h384v-768z" />
    <glyph glyph-name="asciicircum" unicode="^"
d="M256 384h-256v128h128v128h256v-128h-128v-128zM384 512h128v-128h-128v128z" />
    <glyph glyph-name="underscore" unicode="_" horiz-adv-x="512"
d="M0 0h384v-128h-384v128z" />
    <glyph glyph-name="grave" unicode="`" horiz-adv-x="384"
d="M128 384v128h-128v128h256v-256h-128z" />
    <glyph glyph-name="a" unicode="a"
d="M512 0h-512v512h256v-128h128v128h128v-512zM256 384h-128v-256h128v256z" />
    <glyph glyph-name="b" unicode="b"
d="M384 128v256h-128v-256h128zM512 0h-512v640h256v-128h256v-512z" />
    <glyph glyph-name="c" unicode="c"
d="M256 128h256v-128h-512v384h128v128h384v-128h-256v-256z" />
    <glyph glyph-name="d" unicode="d"
d="M256 128v256h-128v-256h128zM512 0h-512v512h256v128h256v-640z" />
    <glyph glyph-name="e" unicode="e"
d="M384 256v128h-128v-128h128zM256 0h256v-128h-384v128h-128v384h128v128h384v-384h-256v-128z" />
    <glyph glyph-name="f" unicode="f" horiz-adv-x="512"
d="M256 0h-256v512h128v128h256v-128h-128v-128h128v-128h-128v-256z" />
    <glyph glyph-name="g" unicode="g"
d="M256 256v128h-128v-128h128zM512 -128h-512v128h256v128h-256v256h128v128h384v-640z" />
    <glyph glyph-name="h" unicode="h"
d="M384 0v256h-128v-256h-256v640h256v-256h256v-384h-128z" />
    <glyph glyph-name="i" unicode="i" horiz-adv-x="384"
d="M0 640h256v-128h-256v128zM256 0h-256v256h128v128h128v-384z" />
    <glyph glyph-name="j" unicode="j" horiz-adv-x="384"
d="M0 640h256v-128h-256v128zM256 -128h-256v384h128v128h128v-512z" />
    <glyph glyph-name="k" unicode="k"
d="M256 0h-256v640h256v-384h128v128h128v-128h-128v-128h-128v-128zM384 128h128v-128h-128v128z" />
    <glyph glyph-name="l" unicode="l" horiz-adv-x="384"
d="M256 0h-256v512h128v128h128v-640z" />
    <glyph glyph-name="m" unicode="m" horiz-adv-x="896"
d="M640 0v384h-128v-384h-128v384h-128v128h512v-512h-128zM256 384v-384h-256v512h128v-128h128z" />
    <glyph glyph-name="n" unicode="n"
d="M384 0v384h-128v128h256v-512h-128zM256 384v-384h-256v512h128v-128h128z" />
    <glyph glyph-name="o" unicode="o"
d="M384 128v256h-128v-256h128zM512 0h-512v384h128v128h384v-512z" />
    <glyph glyph-name="p" unicode="p"
d="M384 128v256h-128v-256h128zM256 -128h-256v640h128v-128h128v128h256v-512h-256v-128z" />
    <glyph glyph-name="q" unicode="q"
d="M512 -128h-256v128h-256v512h256v-128h128v128h128v-640zM256 384h-128v-256h128v256z" />
    <glyph glyph-name="r" unicode="r"
d="M256 512h256v-128h-256v128zM256 0h-256v512h128v-128h128v-384z" />
    <glyph glyph-name="s" unicode="s"
d="M384 0h-384v128h256v128h-256v128h128v128h384v-128h-128v-128h128v-128h-128v-128z" />
    <glyph glyph-name="t" unicode="t" horiz-adv-x="512"
d="M384 0h-384v640h256v-128h128v-128h-128v-256h128v-128z" />
    <glyph glyph-name="u" unicode="u"
d="M512 0h-512v512h256v-384h128v384h128v-512z" />
    <glyph glyph-name="v" unicode="v"
d="M384 0h-256v128h-128v384h256v-384h128v384h128v-384h-128v-128z" />
    <glyph glyph-name="w" unicode="w" horiz-adv-x="896"
d="M768 0h-640v128h-128v384h256v-384h128v384h128v-384h128v384h128v-512z" />
    <glyph glyph-name="x" unicode="x"
d="M512 0h-256v256h-128v128h-128v128h256v-128h128v128h128v-128h-128v-128h128v-256zM0 0v256h128v-256h-128z" />
    <glyph glyph-name="y" unicode="y"
d="M384 -128h-384v128h128v128h-128v384h256v-384h128v384h128v-512h-128v-128z" />
    <glyph glyph-name="z" unicode="z"
d="M256 128h256v-128h-512v256h256v128h-256v128h512v-256h-256v-128z" />
    <glyph glyph-name="braceleft" unicode="{"
d="M512 -128h-384v256h-128v128h128v384h384v-128h-128v-512h128v-128z" />
    <glyph glyph-name="bar" unicode="|" horiz-adv-x="384"
d="M256 -128h-256v768h256v-768z" />
    <glyph glyph-name="braceright" unicode="}"
d="M384 -128h-384v128h128v512h-128v128h384v-384h128v-128h-128v-256z" />
    <glyph glyph-name="asciitilde" unicode="~" horiz-adv-x="768"
d="M256 256h-256v128h128v128h256v-128h-128v-128zM512 384v128h128v-128h-128zM512 384v-128h-128v128h128z" />
    <glyph glyph-name="uni00A0" unicode="&#xa0;"
 />
    <glyph glyph-name="exclamdown" unicode="&#xa1;" horiz-adv-x="384"
d="M0 512h256v-128h-256v128zM256 -128h-256v384h256v-384z" />
    <glyph glyph-name="cent" unicode="&#xa2;"
d="M128 -128v128h-128v512h256v128h128v-128h128v-128h-256v-256h256v-128h-256v-128h-128z" />
    <glyph glyph-name="acute" unicode="&#xb4;" horiz-adv-x="384"
d="M0 384v256h256v-128h-128v-128h-128z" />
  </font>
</defs>
</svg>
