<?xml version="1.0" standalone="no"?>
<!DOCTYPE svg PUBLIC "-//W3C//DTD SVG 1.1//EN" "http://www.w3.org/Graphics/SVG/1.1/DTD/svg11.dtd" >
<svg xmlns="http://www.w3.org/2000/svg">
<metadata>
Created by FontPrep 20130207 at Thu Mar 20 19:16:46 2014
 By Matthew Claypotch
Copyright potch 2014
</metadata>
<defs>
<font id="2ae82d84241b90cc548b70af31921da5" horiz-adv-x='1024' >
  <font-face 
    font-family="8bit-Art-Sans"
    font-weight="400"
    font-stretch="normal"
    units-per-em="2048"
    panose-1="0 0 4 0 0 0 0 0 0 0"
    ascent="1638"
    descent="-410"
    x-height="1024"
    cap-height="1280"
    bbox="0 -256 1536 1280"
    underline-thickness="102"
    underline-position="252"
    unicode-range="U+0020-201D"
  />
<missing-glyph horiz-adv-x="256" 
d="M0 0v1280h1280v-1280h-1280zM842 894v202h-202q-86 0 -145 -60t-59 -142h406zM640 656v204h-204v-204h204zM842 418v204h-406v-204h406zM640 180v204h-204v-204h204z" />
    <glyph glyph-name=".notdef" horiz-adv-x="256" 
d="M0 0v1280h1280v-1280h-1280zM842 894v202h-202q-86 0 -145 -60t-59 -142h406zM640 656v204h-204v-204h204zM842 418v204h-406v-204h406zM640 180v204h-204v-204h204z" />
    <glyph glyph-name="glyph1" horiz-adv-x="0" 
 />
    <glyph glyph-name="glyph2" horiz-adv-x="512" 
 />
    <glyph glyph-name="space" unicode=" " horiz-adv-x="512" 
 />
    <glyph glyph-name="exclam" unicode="!" horiz-adv-x="768" 
d="M0 512v768h512v-768h-512zM0 0v256h512v-256h-512z" />
    <glyph glyph-name="quotedbl" unicode="&#x22;" 
d="M768 768v512h256v-512h-256zM256 768v256h-256v256h512v-512h-256z" />
    <glyph glyph-name="numbersign" unicode="#" horiz-adv-x="1536" 
d="M256 0v256h-256v256h256v256h-256v256h256v256h256v-256h256v256h256v-256h256v-256h-256v-256h256v-256h-256v-256h-256v256h-256v-256h-256zM768 512v256h-256v-256h256z" />
    <glyph glyph-name="dollar" unicode="$" 
d="M256 -256v256h-256v256h512v256h-512v256h256v256h256v256h256v-256h256v-256h-256v-256h256v-256h-256v-256h-256v-256h-256z" />
    <glyph glyph-name="percent" unicode="%" horiz-adv-x="1536" 
d="M512 -256v256h-256v256h256v256h-512v768h768v-256h256v256h256v-256h-256v-256h-256v-256h512v-768h-768zM512 768v256h-256v-256h256zM1024 0v256h-256v-256h256zM0 -256v256h256v-256h-256z" />
    <glyph glyph-name="ampersand" unicode="&#x26;" horiz-adv-x="1536" 
d="M256 0v256h-256v256h256v256h-256v256h256v256h768v-512h256v-256h-256v-256h-256v-256h-512zM768 768v256h-256v-256h256zM768 256v256h-256v-256h256zM1024 256h256v-256h-256v256z" />
    <glyph glyph-name="quotesingle" unicode="'" horiz-adv-x="768" 
d="M256 768v256h-256v256h512v-512h-256z" />
    <glyph glyph-name="parenleft" unicode="(" horiz-adv-x="1024" 
d="M256 -256v256h-256v1024h256v256h512v-256h-256v-1024h256v-256h-512z" />
    <glyph glyph-name="parenright" unicode=")" horiz-adv-x="1024" 
d="M0 -256v256h256v1024h-256v256h512v-256h256v-1024h-256v-256h-512z" />
    <glyph glyph-name="asterisk" unicode="*" horiz-adv-x="1024" 
d="M0 1024v256h256v-256h-256zM0 512v256h256v256h256v256h256v-256h-256v-256h-256v-256h-256zM512 768h256v-256h-256v256z" />
    <glyph glyph-name="plus" unicode="+" horiz-adv-x="1024" 
d="M256 256v256h-256v256h256v256h256v-256h256v-256h-256v-256h-256z" />
    <glyph glyph-name="comma" unicode="," horiz-adv-x="768" 
d="M256 -256v256h-256v256h512v-512h-256z" />
    <glyph glyph-name="hyphen" unicode="-" horiz-adv-x="768" 
d="M0 512v256h512v-256h-512z" />
    <glyph glyph-name="period" unicode="." horiz-adv-x="768" 
d="M0 0v256h512v-256h-512z" />
    <glyph glyph-name="slash" unicode="/" horiz-adv-x="1024" 
d="M0 0v512h256v768h512v-512h-256v-768h-512z" />
    <glyph glyph-name="zero" unicode="0" 
d="M0 0v1024h256v256h768v-1280h-1024zM768 256v768h-256v-768h256z" />
    <glyph glyph-name="one" unicode="1" horiz-adv-x="1024" 
d="M256 0v768h-256v256h256v256h512v-1280h-512z" />
    <glyph glyph-name="two" unicode="2" 
d="M0 0v512h256v256h256v256h-512v256h768v-256h256v-512h-512v-256h512v-256h-1024z" />
    <glyph glyph-name="three" unicode="3" 
d="M0 0v256h512v256h-256v256h256v256h-512v256h768v-256h256v-1024h-1024z" />
    <glyph glyph-name="four" unicode="4" 
d="M512 0v512h-512v768h512v-512h256v512h256v-1280h-512z" />
    <glyph glyph-name="five" unicode="5" 
d="M0 0v256h512v256h-512v768h1024v-256h-512v-256h256v-256h256v-512h-1024z" />
    <glyph glyph-name="six" unicode="6" 
d="M0 0v1280h512v-256h256v-256h256v-768h-1024zM768 768h-256v-512h256v512z" />
    <glyph glyph-name="seven" unicode="7" 
d="M256 0v768h256v256h-512v256h1024v-512h-256v-768h-512z" />
    <glyph glyph-name="eight" unicode="8" 
d="M0 0v512h256v256h-256v256h256v256h768v-512h-256v-256h256v-512h-1024zM768 512h-256v-256h256v256zM768 768v256h-256v-256h256z" />
    <glyph glyph-name="nine" unicode="9" 
d="M512 0v256h-256v256h-256v768h1024v-1280h-512zM256 512h256v512h-256v-512z" />
    <glyph glyph-name="colon" unicode=":" horiz-adv-x="768" 
d="M0 512v256h512v-256h-512zM0 0v256h512v-256h-512z" />
    <glyph glyph-name="semicolon" unicode=";" horiz-adv-x="768" 
d="M0 512v256h512v-256h-512zM256 -256v256h-256v256h512v-512h-256z" />
    <glyph glyph-name="less" unicode="&#x3c;" 
d="M512 0v256h-256v256h-256v256h256v256h256v256h512v-256h-256v-256h-256v-256h256v-256h256v-256h-512z" />
    <glyph glyph-name="equal" unicode="=" 
d="M0 768v256h1024v-256h-1024zM0 256v256h1024v-256h-1024z" />
    <glyph glyph-name="greater" unicode="&#x3e;" 
d="M0 0v256h256v256h256v256h-256v256h-256v256h512v-256h256v-256h256v-256h-256v-256h-256v-256h-512z" />
    <glyph glyph-name="question" unicode="?" 
d="M256 512v256h256v256h-512v256h768v-256h256v-256h-256v-256h-512zM256 0v256h512v-256h-512z" />
    <glyph glyph-name="at" unicode="@" horiz-adv-x="1536" 
d="M512 256v512h512v256h-768v256h768v-256h256v-768h-768zM0 0v1024h256v-1024h-256zM256 0h1024v-256h-1024v256z" />
    <glyph glyph-name="A" unicode="A" 
d="M0 0v1024h256v256h768v-1280h-256v512h-256v-512h-512zM768 768v256h-256v-256h256z" />
    <glyph glyph-name="B" unicode="B" 
d="M0 0v1024h256v256h768v-512h-256v-256h256v-512h-1024zM768 512h-256v-256h256v256zM768 768v256h-256v-256h256z" />
    <glyph glyph-name="C" unicode="C" 
d="M0 0v1024h256v256h768v-256h-512v-768h512v-256h-1024z" />
    <glyph glyph-name="D" unicode="D" 
d="M0 0v1024h256v256h512v-256h-256v-768h256v-256h-768zM768 1024h256v-768h-256v768z" />
    <glyph glyph-name="E" unicode="E" 
d="M0 0v1024h256v256h768v-256h-512v-256h256v-256h-256v-256h512v-256h-1024z" />
    <glyph glyph-name="F" unicode="F" 
d="M0 0v1280h1024v-256h-512v-256h256v-256h-256v-512h-512z" />
    <glyph glyph-name="G" unicode="G" 
d="M0 0v1024h256v256h768v-256h-512v-768h256v256h256v-512h-1024z" />
    <glyph glyph-name="H" unicode="H" 
d="M0 0v1280h512v-256h256v256h256v-1280h-256v768h-256v-768h-512z" />
    <glyph glyph-name="I" unicode="I" horiz-adv-x="768" 
d="M0 0v1280h512v-1280h-512z" />
    <glyph glyph-name="J" unicode="J" 
d="M0 0v512h256v-256h256v1024h512v-1280h-1024z" />
    <glyph glyph-name="K" unicode="K" 
d="M0 0v1280h512v-512h256v512h256v-512h-256v-256h-256v-512h-512zM768 512h256v-512h-256v512z" />
    <glyph glyph-name="L" unicode="L" 
d="M0 0v1280h512v-1024h512v-256h-1024z" />
    <glyph glyph-name="M" unicode="M" horiz-adv-x="1792" 
d="M768 0v1024h-256v256h1024v-1280h-256v1024h-256v-1024h-256zM0 0v1280h256v-256h256v-1024h-512z" />
    <glyph glyph-name="N" unicode="N" 
d="M768 0v1024h-256v256h512v-1280h-256zM0 0v1280h256v-256h256v-1024h-512z" />
    <glyph glyph-name="O" unicode="O" 
d="M0 0v1024h256v256h768v-1280h-1024zM768 256v768h-256v-768h256z" />
    <glyph glyph-name="P" unicode="P" 
d="M0 0v1024h256v256h768v-1024h-512v-256h-512zM768 512v512h-256v-512h256z" />
    <glyph glyph-name="Q" unicode="Q" 
d="M512 -256v256h-512v1024h256v256h768v-1536h-512zM768 256v768h-256v-768h256z" />
    <glyph glyph-name="R" unicode="R" 
d="M0 0v1024h256v256h768v-512h-256v-256h256v-512h-256v256h-256v-256h-512zM768 768v256h-256v-256h256z" />
    <glyph glyph-name="S" unicode="S" 
d="M0 0v256h512v256h-512v512h256v256h768v-256h-512v-256h256v-256h256v-512h-1024z" />
    <glyph glyph-name="T" unicode="T" 
d="M256 0v1024h-256v256h1024v-256h-256v-1024h-512z" />
    <glyph glyph-name="U" unicode="U" 
d="M0 0v1024h256v256h256v-1024h256v1024h256v-1280h-1024z" />
    <glyph glyph-name="V" unicode="V" 
d="M0 0v1280h256v-1024h256v1024h512v-1024h-256v-256h-768z" />
    <glyph glyph-name="W" unicode="W" horiz-adv-x="1792" 
d="M0 0v1024h256v256h256v-1024h256v512h256v-512h256v1024h256v-1280h-1536z" />
    <glyph glyph-name="X" unicode="X" 
d="M512 0v512h-256v256h-256v512h512v-512h256v512h256v-512h-256v-256h256v-512h-512zM0 0v512h256v-512h-256z" />
    <glyph glyph-name="Y" unicode="Y" 
d="M256 0v512h-256v768h512v-768h256v768h256v-768h-256v-512h-512z" />
    <glyph glyph-name="Z" unicode="Z" 
d="M0 0v512h256v256h256v256h-512v256h1024v-512h-256v-256h-256v-256h512v-256h-1024z" />
    <glyph glyph-name="bracketleft" unicode="[" horiz-adv-x="1024" 
d="M0 -256v1536h768v-256h-256v-1024h256v-256h-768z" />
    <glyph glyph-name="backslash" unicode="\" horiz-adv-x="1024" 
d="M256 0v768h-256v512h512v-768h256v-512h-512z" />
    <glyph glyph-name="bracketright" unicode="]" horiz-adv-x="1024" 
d="M0 -256v256h256v1024h-256v256h768v-1536h-768z" />
    <glyph glyph-name="asciicircum" unicode="^" 
d="M0 768v256h256v256h512v-256h-256v-256h-512zM768 1024h256v-256h-256v256z" />
    <glyph glyph-name="underscore" unicode="_" 
d="M0 0v256h1024v-256h-1024z" />
    <glyph glyph-name="grave" unicode="`" horiz-adv-x="768" 
d="M0 768v512h256v-256h256v-256h-512z" />
    <glyph glyph-name="a" unicode="a" 
d="M0 0v1024h512v-256h256v256h256v-1024h-1024zM512 768h-256v-512h256v512z" />
    <glyph glyph-name="b" unicode="b" 
d="M0 0v1280h512v-256h512v-1024h-1024zM768 256v512h-256v-512h256z" />
    <glyph glyph-name="c" unicode="c" 
d="M0 0v1024h1024v-256h-512v-512h512v-256h-1024z" />
    <glyph glyph-name="d" unicode="d" 
d="M0 0v1024h512v256h512v-1280h-1024zM512 256v512h-256v-512h256z" />
    <glyph glyph-name="e" unicode="e" 
d="M256 -256v256h-256v768h256v256h768v-768h-512v-256h512v-256h-768zM768 512v256h-256v-256h256z" />
    <glyph glyph-name="f" unicode="f" horiz-adv-x="1024" 
d="M0 0v1024h256v256h512v-256h-256v-256h256v-256h-256v-512h-512z" />
    <glyph glyph-name="g" unicode="g" 
d="M0 -256v256h512v256h-512v512h256v256h768v-1280h-1024zM768 512v256h-256v-256h256z" />
    <glyph glyph-name="h" unicode="h" 
d="M0 0v1280h512v-256h512v-1024h-256v768h-256v-768h-512z" />
    <glyph glyph-name="i" unicode="i" horiz-adv-x="768" 
d="M0 1024v256h512v-256h-512zM0 0v768h512v-768h-512z" />
    <glyph glyph-name="j" unicode="j" horiz-adv-x="768" 
d="M0 1024v256h512v-256h-512zM0 -256v1024h512v-1024h-512z" />
    <glyph glyph-name="k" unicode="k" 
d="M0 0v1280h512v-768h256v-256h-256v-256h-512zM768 512v256h256v-256h-256zM768 256h256v-256h-256v256z" />
    <glyph glyph-name="l" unicode="l" horiz-adv-x="768" 
d="M0 0v1280h512v-1280h-512z" />
    <glyph glyph-name="m" unicode="m" horiz-adv-x="1792" 
d="M768 0v768h-256v256h1024v-1024h-256v768h-256v-768h-256zM0 0v1024h256v-256h256v-768h-512z" />
    <glyph glyph-name="n" unicode="n" 
d="M768 0v768h-256v256h512v-1024h-256zM0 0v1024h256v-256h256v-768h-512z" />
    <glyph glyph-name="o" unicode="o" 
d="M0 0v1024h1024v-1024h-1024zM768 256v512h-256v-512h256z" />
    <glyph glyph-name="p" unicode="p" 
d="M0 -256v1280h256v-256h256v256h512v-1024h-512v-256h-512zM512 768v-512h256v512h-256z" />
    <glyph glyph-name="q" unicode="q" 
d="M512 -256v256h-512v1024h512v-256h256v256h256v-1280h-512zM512 768h-256v-512h256v512z" />
    <glyph glyph-name="r" unicode="r" 
d="M0 0v1024h256v-256h256v256h512v-256h-512v-768h-512z" />
    <glyph glyph-name="s" unicode="s" 
d="M0 0v256h512v256h-512v256h256v256h768v-256h-256v-256h256v-256h-256v-256h-768z" />
    <glyph glyph-name="t" unicode="t" horiz-adv-x="1024" 
d="M0 0v1280h512v-256h256v-256h-256v-512h256v-256h-768z" />
    <glyph glyph-name="u" unicode="u" 
d="M0 0v1024h512v-768h256v768h256v-1024h-1024z" />
    <glyph glyph-name="v" unicode="v" 
d="M0 0v1024h256v-768h256v768h512v-768h-256v-256h-768z" />
    <glyph glyph-name="w" unicode="w" horiz-adv-x="1792" 
d="M256 0v256h-256v768h512v-768h256v768h256v-768h256v768h256v-1024h-1280z" />
    <glyph glyph-name="x" unicode="x" 
d="M512 0v512h-256v256h-256v256h512v-256h256v256h256v-256h-256v-256h256v-512h-512zM0 0v512h256v-512h-256z" />
    <glyph glyph-name="y" unicode="y" 
d="M512 -256v256h-256v256h-256v768h512v-768h256v768h256v-1280h-512z" />
    <glyph glyph-name="z" unicode="z" 
d="M0 0v512h256v256h-256v256h1024v-512h-512v-256h512v-256h-1024z" />
    <glyph glyph-name="braceleft" unicode="{" 
d="M256 -256v512h-256v512h256v512h768v-256h-256v-1024h256v-256h-768z" />
    <glyph glyph-name="bar" unicode="|" horiz-adv-x="768" 
d="M0 -256v1536h512v-1536h-512z" />
    <glyph glyph-name="braceright" unicode="}" 
d="M0 -256v256h256v1024h-256v256h768v-512h256v-512h-256v-512h-768z" />
    <glyph glyph-name="asciitilde" unicode="~" horiz-adv-x="1536" 
d="M0 512v256h256v256h512v-256h-256v-256h-512zM1024 768v256h256v-256h-256zM1024 768v-256h-256v256h256z" />
    <glyph glyph-name="exclamdown" unicode="&#xa1;" horiz-adv-x="768" 
d="M0 768v256h512v-256h-512zM0 -256v768h512v-768h-512z" />
    <glyph glyph-name="questiondown" unicode="&#xbf;" 
d="M256 768v256h512v-256h-512zM256 -256v256h-256v256h256v256h512v-256h-256v-256h512v-256h-768z" />
    <glyph glyph-name="quoteleft" unicode="&#x2018;" horiz-adv-x="768" 
d="M0 768v512h512v-256h-256v-256h-256z" />
    <glyph glyph-name="quoteright" unicode="&#x2019;" horiz-adv-x="768" 
d="M256 768v256h-256v256h512v-512h-256z" />
    <glyph glyph-name="quotedblleft" unicode="&#x201c;" 
d="M768 768v512h256v-512h-256zM0 768v512h256v-256h256v-256h-512z" />
    <glyph glyph-name="quotedblright" unicode="&#x201d;" 
d="M768 768v256h-256v256h512v-512h-256zM0 768v512h256v-512h-256z" />
  </font>
</defs>
</svg>
